<svg viewBox="0 0 20 20" xmlns="http://www.w3.org/2000/svg" xmlns:xlink="http://www.w3.org/1999/xlink"><style>:root&gt;svg{display:none}:root&gt;svg:target{display:block}</style><svg fill="none" viewBox="0 0 20 19" id="cart" xmlns="http://www.w3.org/2000/svg"><path d="M20 6.579h-3.396L13.036.319a.608.608 0 00-.858-.225.678.678 0 00-.214.902l3.182 5.583H4.854L8.036.996a.678.678 0 00-.214-.902.608.608 0 00-.858.225L3.396 6.58H0v1.316h1.357l1.587 8.915c.166.934.941 1.611 1.844 1.611h10.424c.902 0 1.678-.677 1.843-1.61l1.588-8.916H20V6.579zm-4.174 9.99a.634.634 0 01-.614.536H4.788a.634.634 0 01-.615-.537L2.628 7.895h14.744l-1.546 8.674z" fill="#fff"/></svg><svg data-name="Слой 1" viewBox="0 0 20 20" id="remove" xmlns="http://www.w3.org/2000/svg"><path class="ccls-1" d="M19.28 15.81L13.48 10l5.8-5.8c2.24-2.24-1.23-5.71-3.47-3.47L10 6.53 4.2.73C1.96-1.51-1.51 1.96.73 4.16l5.8 5.8-5.8 5.81c-2.24 2.24 1.23 5.71 3.47 3.47l5.8-5.8 5.81 5.8c2.24 2.28 5.71-1.19 3.47-3.43z" fill="#374B68"/></svg><svg data-name="Слой 1" viewBox="0 0 20 20" id="remove-board" xmlns="http://www.w3.org/2000/svg"><path class="bcls-1" d="M19.28 15.81L13.48 10l5.8-5.8c2.24-2.24-1.23-5.71-3.47-3.47L10 6.53 4.2.73C1.96-1.51-1.51 1.96.73 4.16l5.8 5.8-5.8 5.81c-2.24 2.24 1.23 5.71 3.47 3.47l5.8-5.8 5.81 5.8c2.24 2.28 5.71-1.19 3.47-3.43z" fill="#fff"/></svg></svg>